<?xml version="1.0" standalone="no"?>
<!DOCTYPE svg PUBLIC "-//W3C//DTD SVG 20010904//EN"
 "http://www.w3.org/TR/2001/REC-SVG-20010904/DTD/svg10.dtd">
<svg version="1.0" xmlns="http://www.w3.org/2000/svg"
 width="1324.000000pt" height="1324.000000pt" viewBox="0 0 1324.000000 1324.000000"
 preserveAspectRatio="xMidYMid meet">
<metadata>
Created by potrace 1.11, written by Peter Selinger 2001-2013
</metadata>
<g transform="translate(0.000000,1324.000000) scale(0.100000,-0.100000)"
fill="#000000" stroke="none">
<path d="M6215 11729 c-744 -59 -1497 -292 -2146 -665 -687 -393 -1285 -956
-1724 -1619 -414 -625 -686 -1339 -795 -2082 -68 -467 -68 -1019 0 -1486 211
-1442 1028 -2727 2245 -3532 725 -480 1567 -767 2444 -835 175 -13 590 -13
762 1 1223 96 2331 597 3203 1449 892 871 1429 2029 1526 3289 13 173 13 569
0 742 -97 1260 -634 2418 -1526 3289 -872 852 -1981 1353 -3203 1449 -157 13
-626 12 -786 0z m2497 -2437 c20 -9 207 -154 416 -322 270 -216 384 -313 391
-334 15 -41 14 -82 -5 -118 -9 -18 -530 -691 -1157 -1497 -627 -806 -1193
-1533 -1257 -1616 -641 -826 -1106 -1415 -1136 -1437 -45 -34 -114 -38 -155
-10 -34 22 -67 53 -729 692 -299 289 -671 646 -825 795 -573 552 -545 522
-545 587 1 18 6 43 13 55 28 50 668 715 725 753 35 23 48 27 72 20 51 -15 4
29 695 -645 568 -553 533 -521 549 -504 14 14 88 109 1775 2279 541 696 996
1277 1012 1293 24 22 39 27 77 27 26 0 63 -8 84 -18z"/>
</g>
</svg>
